<?xml version="1.0" encoding="utf-8" standalone="no"?>
<!DOCTYPE svg PUBLIC "-//W3C//DTD SVG 1.1//EN"
  "http://www.w3.org/Graphics/SVG/1.1/DTD/svg11.dtd">
<!-- Created with matplotlib (https://matplotlib.org/) -->
<svg height="576pt" version="1.1" viewBox="0 0 1152 576" width="1152pt" xmlns="http://www.w3.org/2000/svg" xmlns:xlink="http://www.w3.org/1999/xlink">
 <defs>
  <style type="text/css">
*{stroke-linecap:butt;stroke-linejoin:round;white-space:pre;}
  </style>
 </defs>
 <g id="figure_1">
  <g id="patch_1">
   <path d="M 0 576 
L 1152 576 
L 1152 0 
L 0 0 
z
" style="fill:#ffffff;"/>
  </g>
  <g id="axes_1">
   <g id="patch_2">
    <path d="M 144 504 
L 1036.8 504 
L 1036.8 69.12 
L 144 69.12 
z
" style="fill:#ffffff;"/>
   </g>
   <g id="matplotlib.axis_1">
    <g id="xtick_1">
     <g id="line2d_1">
      <path clip-path="url(#p20c57565fc)" d="M 184.581818 504 
L 184.581818 69.12 
" style="fill:none;stroke:#b0b0b0;stroke-linecap:square;stroke-width:0.8;"/>
     </g>
     <g id="line2d_2">
      <defs>
       <path d="M 0 0 
L 0 3.5 
" id="m3888d7a18c" style="stroke:#000000;stroke-width:0.8;"/>
      </defs>
      <g>
       <use style="stroke:#000000;stroke-width:0.8;" x="184.581818" xlink:href="#m3888d7a18c" y="504"/>
      </g>
     </g>
     <g id="text_1">
      <!-- 0 -->
      <defs>
       <path d="M 31.78125 66.40625 
Q 24.171875 66.40625 20.328125 58.90625 
Q 16.5 51.421875 16.5 36.375 
Q 16.5 21.390625 20.328125 13.890625 
Q 24.171875 6.390625 31.78125 6.390625 
Q 39.453125 6.390625 43.28125 13.890625 
Q 47.125 21.390625 47.125 36.375 
Q 47.125 51.421875 43.28125 58.90625 
Q 39.453125 66.40625 31.78125 66.40625 
z
M 31.78125 74.21875 
Q 44.046875 74.21875 50.515625 64.515625 
Q 56.984375 54.828125 56.984375 36.375 
Q 56.984375 17.96875 50.515625 8.265625 
Q 44.046875 -1.421875 31.78125 -1.421875 
Q 19.53125 -1.421875 13.0625 8.265625 
Q 6.59375 17.96875 6.59375 36.375 
Q 6.59375 54.828125 13.0625 64.515625 
Q 19.53125 74.21875 31.78125 74.21875 
z
" id="DejaVuSans-48"/>
      </defs>
      <g transform="translate(181.400568 518.598438)scale(0.1 -0.1)">
       <use xlink:href="#DejaVuSans-48"/>
      </g>
     </g>
    </g>
    <g id="xtick_2">
     <g id="line2d_3">
      <path clip-path="url(#p20c57565fc)" d="M 347.071581 504 
L 347.071581 69.12 
" style="fill:none;stroke:#b0b0b0;stroke-linecap:square;stroke-width:0.8;"/>
     </g>
     <g id="line2d_4">
      <g>
       <use style="stroke:#000000;stroke-width:0.8;" x="347.071581" xlink:href="#m3888d7a18c" y="504"/>
      </g>
     </g>
     <g id="text_2">
      <!-- 200 -->
      <defs>
       <path d="M 19.1875 8.296875 
L 53.609375 8.296875 
L 53.609375 0 
L 7.328125 0 
L 7.328125 8.296875 
Q 12.9375 14.109375 22.625 23.890625 
Q 32.328125 33.6875 34.8125 36.53125 
Q 39.546875 41.84375 41.421875 45.53125 
Q 43.3125 49.21875 43.3125 52.78125 
Q 43.3125 58.59375 39.234375 62.25 
Q 35.15625 65.921875 28.609375 65.921875 
Q 23.96875 65.921875 18.8125 64.3125 
Q 13.671875 62.703125 7.8125 59.421875 
L 7.8125 69.390625 
Q 13.765625 71.78125 18.9375 73 
Q 24.125 74.21875 28.421875 74.21875 
Q 39.75 74.21875 46.484375 68.546875 
Q 53.21875 62.890625 53.21875 53.421875 
Q 53.21875 48.921875 51.53125 44.890625 
Q 49.859375 40.875 45.40625 35.40625 
Q 44.1875 33.984375 37.640625 27.21875 
Q 31.109375 20.453125 19.1875 8.296875 
z
" id="DejaVuSans-50"/>
      </defs>
      <g transform="translate(337.527831 518.598438)scale(0.1 -0.1)">
       <use xlink:href="#DejaVuSans-50"/>
       <use x="63.623047" xlink:href="#DejaVuSans-48"/>
       <use x="127.246094" xlink:href="#DejaVuSans-48"/>
      </g>
     </g>
    </g>
    <g id="xtick_3">
     <g id="line2d_5">
      <path clip-path="url(#p20c57565fc)" d="M 509.561343 504 
L 509.561343 69.12 
" style="fill:none;stroke:#b0b0b0;stroke-linecap:square;stroke-width:0.8;"/>
     </g>
     <g id="line2d_6">
      <g>
       <use style="stroke:#000000;stroke-width:0.8;" x="509.561343" xlink:href="#m3888d7a18c" y="504"/>
      </g>
     </g>
     <g id="text_3">
      <!-- 400 -->
      <defs>
       <path d="M 37.796875 64.3125 
L 12.890625 25.390625 
L 37.796875 25.390625 
z
M 35.203125 72.90625 
L 47.609375 72.90625 
L 47.609375 25.390625 
L 58.015625 25.390625 
L 58.015625 17.1875 
L 47.609375 17.1875 
L 47.609375 0 
L 37.796875 0 
L 37.796875 17.1875 
L 4.890625 17.1875 
L 4.890625 26.703125 
z
" id="DejaVuSans-52"/>
      </defs>
      <g transform="translate(500.017593 518.598438)scale(0.1 -0.1)">
       <use xlink:href="#DejaVuSans-52"/>
       <use x="63.623047" xlink:href="#DejaVuSans-48"/>
       <use x="127.246094" xlink:href="#DejaVuSans-48"/>
      </g>
     </g>
    </g>
    <g id="xtick_4">
     <g id="line2d_7">
      <path clip-path="url(#p20c57565fc)" d="M 672.051106 504 
L 672.051106 69.12 
" style="fill:none;stroke:#b0b0b0;stroke-linecap:square;stroke-width:0.8;"/>
     </g>
     <g id="line2d_8">
      <g>
       <use style="stroke:#000000;stroke-width:0.8;" x="672.051106" xlink:href="#m3888d7a18c" y="504"/>
      </g>
     </g>
     <g id="text_4">
      <!-- 600 -->
      <defs>
       <path d="M 33.015625 40.375 
Q 26.375 40.375 22.484375 35.828125 
Q 18.609375 31.296875 18.609375 23.390625 
Q 18.609375 15.53125 22.484375 10.953125 
Q 26.375 6.390625 33.015625 6.390625 
Q 39.65625 6.390625 43.53125 10.953125 
Q 47.40625 15.53125 47.40625 23.390625 
Q 47.40625 31.296875 43.53125 35.828125 
Q 39.65625 40.375 33.015625 40.375 
z
M 52.59375 71.296875 
L 52.59375 62.3125 
Q 48.875 64.0625 45.09375 64.984375 
Q 41.3125 65.921875 37.59375 65.921875 
Q 27.828125 65.921875 22.671875 59.328125 
Q 17.53125 52.734375 16.796875 39.40625 
Q 19.671875 43.65625 24.015625 45.921875 
Q 28.375 48.1875 33.59375 48.1875 
Q 44.578125 48.1875 50.953125 41.515625 
Q 57.328125 34.859375 57.328125 23.390625 
Q 57.328125 12.15625 50.6875 5.359375 
Q 44.046875 -1.421875 33.015625 -1.421875 
Q 20.359375 -1.421875 13.671875 8.265625 
Q 6.984375 17.96875 6.984375 36.375 
Q 6.984375 53.65625 15.1875 63.9375 
Q 23.390625 74.21875 37.203125 74.21875 
Q 40.921875 74.21875 44.703125 73.484375 
Q 48.484375 72.75 52.59375 71.296875 
z
" id="DejaVuSans-54"/>
      </defs>
      <g transform="translate(662.507356 518.598438)scale(0.1 -0.1)">
       <use xlink:href="#DejaVuSans-54"/>
       <use x="63.623047" xlink:href="#DejaVuSans-48"/>
       <use x="127.246094" xlink:href="#DejaVuSans-48"/>
      </g>
     </g>
    </g>
    <g id="xtick_5">
     <g id="line2d_9">
      <path clip-path="url(#p20c57565fc)" d="M 834.540868 504 
L 834.540868 69.12 
" style="fill:none;stroke:#b0b0b0;stroke-linecap:square;stroke-width:0.8;"/>
     </g>
     <g id="line2d_10">
      <g>
       <use style="stroke:#000000;stroke-width:0.8;" x="834.540868" xlink:href="#m3888d7a18c" y="504"/>
      </g>
     </g>
     <g id="text_5">
      <!-- 800 -->
      <defs>
       <path d="M 31.78125 34.625 
Q 24.75 34.625 20.71875 30.859375 
Q 16.703125 27.09375 16.703125 20.515625 
Q 16.703125 13.921875 20.71875 10.15625 
Q 24.75 6.390625 31.78125 6.390625 
Q 38.8125 6.390625 42.859375 10.171875 
Q 46.921875 13.96875 46.921875 20.515625 
Q 46.921875 27.09375 42.890625 30.859375 
Q 38.875 34.625 31.78125 34.625 
z
M 21.921875 38.8125 
Q 15.578125 40.375 12.03125 44.71875 
Q 8.5 49.078125 8.5 55.328125 
Q 8.5 64.0625 14.71875 69.140625 
Q 20.953125 74.21875 31.78125 74.21875 
Q 42.671875 74.21875 48.875 69.140625 
Q 55.078125 64.0625 55.078125 55.328125 
Q 55.078125 49.078125 51.53125 44.71875 
Q 48 40.375 41.703125 38.8125 
Q 48.828125 37.15625 52.796875 32.3125 
Q 56.78125 27.484375 56.78125 20.515625 
Q 56.78125 9.90625 50.3125 4.234375 
Q 43.84375 -1.421875 31.78125 -1.421875 
Q 19.734375 -1.421875 13.25 4.234375 
Q 6.78125 9.90625 6.78125 20.515625 
Q 6.78125 27.484375 10.78125 32.3125 
Q 14.796875 37.15625 21.921875 38.8125 
z
M 18.3125 54.390625 
Q 18.3125 48.734375 21.84375 45.5625 
Q 25.390625 42.390625 31.78125 42.390625 
Q 38.140625 42.390625 41.71875 45.5625 
Q 45.3125 48.734375 45.3125 54.390625 
Q 45.3125 60.0625 41.71875 63.234375 
Q 38.140625 66.40625 31.78125 66.40625 
Q 25.390625 66.40625 21.84375 63.234375 
Q 18.3125 60.0625 18.3125 54.390625 
z
" id="DejaVuSans-56"/>
      </defs>
      <g transform="translate(824.997118 518.598438)scale(0.1 -0.1)">
       <use xlink:href="#DejaVuSans-56"/>
       <use x="63.623047" xlink:href="#DejaVuSans-48"/>
       <use x="127.246094" xlink:href="#DejaVuSans-48"/>
      </g>
     </g>
    </g>
    <g id="xtick_6">
     <g id="line2d_11">
      <path clip-path="url(#p20c57565fc)" d="M 997.030631 504 
L 997.030631 69.12 
" style="fill:none;stroke:#b0b0b0;stroke-linecap:square;stroke-width:0.8;"/>
     </g>
     <g id="line2d_12">
      <g>
       <use style="stroke:#000000;stroke-width:0.8;" x="997.030631" xlink:href="#m3888d7a18c" y="504"/>
      </g>
     </g>
     <g id="text_6">
      <!-- 1000 -->
      <defs>
       <path d="M 12.40625 8.296875 
L 28.515625 8.296875 
L 28.515625 63.921875 
L 10.984375 60.40625 
L 10.984375 69.390625 
L 28.421875 72.90625 
L 38.28125 72.90625 
L 38.28125 8.296875 
L 54.390625 8.296875 
L 54.390625 0 
L 12.40625 0 
z
" id="DejaVuSans-49"/>
      </defs>
      <g transform="translate(984.305631 518.598438)scale(0.1 -0.1)">
       <use xlink:href="#DejaVuSans-49"/>
       <use x="63.623047" xlink:href="#DejaVuSans-48"/>
       <use x="127.246094" xlink:href="#DejaVuSans-48"/>
       <use x="190.869141" xlink:href="#DejaVuSans-48"/>
      </g>
     </g>
    </g>
   </g>
   <g id="matplotlib.axis_2">
    <g id="ytick_1">
     <g id="line2d_13">
      <path clip-path="url(#p20c57565fc)" d="M 144 452.201996 
L 1036.8 452.201996 
" style="fill:none;stroke:#b0b0b0;stroke-linecap:square;stroke-width:0.8;"/>
     </g>
     <g id="line2d_14">
      <defs>
       <path d="M 0 0 
L -3.5 0 
" id="mc1024fbb66" style="stroke:#000000;stroke-width:0.8;"/>
      </defs>
      <g>
       <use style="stroke:#000000;stroke-width:0.8;" x="144" xlink:href="#mc1024fbb66" y="452.201996"/>
      </g>
     </g>
     <g id="text_7">
      <!-- 0.1 -->
      <defs>
       <path d="M 10.6875 12.40625 
L 21 12.40625 
L 21 0 
L 10.6875 0 
z
" id="DejaVuSans-46"/>
      </defs>
      <g transform="translate(121.096875 456.001215)scale(0.1 -0.1)">
       <use xlink:href="#DejaVuSans-48"/>
       <use x="63.623047" xlink:href="#DejaVuSans-46"/>
       <use x="95.410156" xlink:href="#DejaVuSans-49"/>
      </g>
     </g>
    </g>
    <g id="ytick_2">
     <g id="line2d_15">
      <path clip-path="url(#p20c57565fc)" d="M 144 400.077206 
L 1036.8 400.077206 
" style="fill:none;stroke:#b0b0b0;stroke-linecap:square;stroke-width:0.8;"/>
     </g>
     <g id="line2d_16">
      <g>
       <use style="stroke:#000000;stroke-width:0.8;" x="144" xlink:href="#mc1024fbb66" y="400.077206"/>
      </g>
     </g>
     <g id="text_8">
      <!-- 0.2 -->
      <g transform="translate(121.096875 403.876425)scale(0.1 -0.1)">
       <use xlink:href="#DejaVuSans-48"/>
       <use x="63.623047" xlink:href="#DejaVuSans-46"/>
       <use x="95.410156" xlink:href="#DejaVuSans-50"/>
      </g>
     </g>
    </g>
    <g id="ytick_3">
     <g id="line2d_17">
      <path clip-path="url(#p20c57565fc)" d="M 144 347.952416 
L 1036.8 347.952416 
" style="fill:none;stroke:#b0b0b0;stroke-linecap:square;stroke-width:0.8;"/>
     </g>
     <g id="line2d_18">
      <g>
       <use style="stroke:#000000;stroke-width:0.8;" x="144" xlink:href="#mc1024fbb66" y="347.952416"/>
      </g>
     </g>
     <g id="text_9">
      <!-- 0.3 -->
      <defs>
       <path d="M 40.578125 39.3125 
Q 47.65625 37.796875 51.625 33 
Q 55.609375 28.21875 55.609375 21.1875 
Q 55.609375 10.40625 48.1875 4.484375 
Q 40.765625 -1.421875 27.09375 -1.421875 
Q 22.515625 -1.421875 17.65625 -0.515625 
Q 12.796875 0.390625 7.625 2.203125 
L 7.625 11.71875 
Q 11.71875 9.328125 16.59375 8.109375 
Q 21.484375 6.890625 26.8125 6.890625 
Q 36.078125 6.890625 40.9375 10.546875 
Q 45.796875 14.203125 45.796875 21.1875 
Q 45.796875 27.640625 41.28125 31.265625 
Q 36.765625 34.90625 28.71875 34.90625 
L 20.21875 34.90625 
L 20.21875 43.015625 
L 29.109375 43.015625 
Q 36.375 43.015625 40.234375 45.921875 
Q 44.09375 48.828125 44.09375 54.296875 
Q 44.09375 59.90625 40.109375 62.90625 
Q 36.140625 65.921875 28.71875 65.921875 
Q 24.65625 65.921875 20.015625 65.03125 
Q 15.375 64.15625 9.8125 62.3125 
L 9.8125 71.09375 
Q 15.4375 72.65625 20.34375 73.4375 
Q 25.25 74.21875 29.59375 74.21875 
Q 40.828125 74.21875 47.359375 69.109375 
Q 53.90625 64.015625 53.90625 55.328125 
Q 53.90625 49.265625 50.4375 45.09375 
Q 46.96875 40.921875 40.578125 39.3125 
z
" id="DejaVuSans-51"/>
      </defs>
      <g transform="translate(121.096875 351.751634)scale(0.1 -0.1)">
       <use xlink:href="#DejaVuSans-48"/>
       <use x="63.623047" xlink:href="#DejaVuSans-46"/>
       <use x="95.410156" xlink:href="#DejaVuSans-51"/>
      </g>
     </g>
    </g>
    <g id="ytick_4">
     <g id="line2d_19">
      <path clip-path="url(#p20c57565fc)" d="M 144 295.827625 
L 1036.8 295.827625 
" style="fill:none;stroke:#b0b0b0;stroke-linecap:square;stroke-width:0.8;"/>
     </g>
     <g id="line2d_20">
      <g>
       <use style="stroke:#000000;stroke-width:0.8;" x="144" xlink:href="#mc1024fbb66" y="295.827625"/>
      </g>
     </g>
     <g id="text_10">
      <!-- 0.4 -->
      <g transform="translate(121.096875 299.626844)scale(0.1 -0.1)">
       <use xlink:href="#DejaVuSans-48"/>
       <use x="63.623047" xlink:href="#DejaVuSans-46"/>
       <use x="95.410156" xlink:href="#DejaVuSans-52"/>
      </g>
     </g>
    </g>
    <g id="ytick_5">
     <g id="line2d_21">
      <path clip-path="url(#p20c57565fc)" d="M 144 243.702835 
L 1036.8 243.702835 
" style="fill:none;stroke:#b0b0b0;stroke-linecap:square;stroke-width:0.8;"/>
     </g>
     <g id="line2d_22">
      <g>
       <use style="stroke:#000000;stroke-width:0.8;" x="144" xlink:href="#mc1024fbb66" y="243.702835"/>
      </g>
     </g>
     <g id="text_11">
      <!-- 0.5 -->
      <defs>
       <path d="M 10.796875 72.90625 
L 49.515625 72.90625 
L 49.515625 64.59375 
L 19.828125 64.59375 
L 19.828125 46.734375 
Q 21.96875 47.46875 24.109375 47.828125 
Q 26.265625 48.1875 28.421875 48.1875 
Q 40.625 48.1875 47.75 41.5 
Q 54.890625 34.8125 54.890625 23.390625 
Q 54.890625 11.625 47.5625 5.09375 
Q 40.234375 -1.421875 26.90625 -1.421875 
Q 22.3125 -1.421875 17.546875 -0.640625 
Q 12.796875 0.140625 7.71875 1.703125 
L 7.71875 11.625 
Q 12.109375 9.234375 16.796875 8.0625 
Q 21.484375 6.890625 26.703125 6.890625 
Q 35.15625 6.890625 40.078125 11.328125 
Q 45.015625 15.765625 45.015625 23.390625 
Q 45.015625 31 40.078125 35.4375 
Q 35.15625 39.890625 26.703125 39.890625 
Q 22.75 39.890625 18.8125 39.015625 
Q 14.890625 38.140625 10.796875 36.28125 
z
" id="DejaVuSans-53"/>
      </defs>
      <g transform="translate(121.096875 247.502054)scale(0.1 -0.1)">
       <use xlink:href="#DejaVuSans-48"/>
       <use x="63.623047" xlink:href="#DejaVuSans-46"/>
       <use x="95.410156" xlink:href="#DejaVuSans-53"/>
      </g>
     </g>
    </g>
    <g id="ytick_6">
     <g id="line2d_23">
      <path clip-path="url(#p20c57565fc)" d="M 144 191.578045 
L 1036.8 191.578045 
" style="fill:none;stroke:#b0b0b0;stroke-linecap:square;stroke-width:0.8;"/>
     </g>
     <g id="line2d_24">
      <g>
       <use style="stroke:#000000;stroke-width:0.8;" x="144" xlink:href="#mc1024fbb66" y="191.578045"/>
      </g>
     </g>
     <g id="text_12">
      <!-- 0.6 -->
      <g transform="translate(121.096875 195.377264)scale(0.1 -0.1)">
       <use xlink:href="#DejaVuSans-48"/>
       <use x="63.623047" xlink:href="#DejaVuSans-46"/>
       <use x="95.410156" xlink:href="#DejaVuSans-54"/>
      </g>
     </g>
    </g>
    <g id="ytick_7">
     <g id="line2d_25">
      <path clip-path="url(#p20c57565fc)" d="M 144 139.453255 
L 1036.8 139.453255 
" style="fill:none;stroke:#b0b0b0;stroke-linecap:square;stroke-width:0.8;"/>
     </g>
     <g id="line2d_26">
      <g>
       <use style="stroke:#000000;stroke-width:0.8;" x="144" xlink:href="#mc1024fbb66" y="139.453255"/>
      </g>
     </g>
     <g id="text_13">
      <!-- 0.7 -->
      <defs>
       <path d="M 8.203125 72.90625 
L 55.078125 72.90625 
L 55.078125 68.703125 
L 28.609375 0 
L 18.3125 0 
L 43.21875 64.59375 
L 8.203125 64.59375 
z
" id="DejaVuSans-55"/>
      </defs>
      <g transform="translate(121.096875 143.252473)scale(0.1 -0.1)">
       <use xlink:href="#DejaVuSans-48"/>
       <use x="63.623047" xlink:href="#DejaVuSans-46"/>
       <use x="95.410156" xlink:href="#DejaVuSans-55"/>
      </g>
     </g>
    </g>
    <g id="ytick_8">
     <g id="line2d_27">
      <path clip-path="url(#p20c57565fc)" d="M 144 87.328464 
L 1036.8 87.328464 
" style="fill:none;stroke:#b0b0b0;stroke-linecap:square;stroke-width:0.8;"/>
     </g>
     <g id="line2d_28">
      <g>
       <use style="stroke:#000000;stroke-width:0.8;" x="144" xlink:href="#mc1024fbb66" y="87.328464"/>
      </g>
     </g>
     <g id="text_14">
      <!-- 0.8 -->
      <g transform="translate(121.096875 91.127683)scale(0.1 -0.1)">
       <use xlink:href="#DejaVuSans-48"/>
       <use x="63.623047" xlink:href="#DejaVuSans-46"/>
       <use x="95.410156" xlink:href="#DejaVuSans-56"/>
      </g>
     </g>
    </g>
   </g>
   <g id="line2d_29">
    <path clip-path="url(#p20c57565fc)" d="M 184.581818 325.053945 
L 195.143653 361.574851 
L 200.018346 379.482968 
L 204.08059 395.033654 
L 208.142834 410.522725 
L 211.392629 421.404761 
L 213.017527 426.361245 
L 214.642424 430.467405 
L 216.267322 434.039987 
L 217.892219 436.743736 
L 219.517117 439.106701 
L 222.766912 443.207077 
L 228.454054 449.969143 
L 230.078952 451.772201 
L 230.8914 452.208643 
L 231.703849 453.528272 
L 234.953645 456.82359 
L 236.578542 458.191999 
L 238.20344 459.272831 
L 242.265684 461.391239 
L 246.327928 463.193198 
L 249.577723 464.111655 
L 250.390172 464.21418 
L 252.01507 464.681721 
L 261.764455 466.653048 
L 264.201802 467.116169 
L 265.014251 467.153967 
L 265.826699 467.452178 
L 272.32629 468.728222 
L 274.763636 469.122653 
L 286.13792 471.410969 
L 290.200164 472.318267 
L 296.699754 473.713281 
L 301.574447 474.694234 
L 304.824242 475.141955 
L 306.44914 475.316412 
L 307.261589 475.511887 
L 308.074038 475.365559 
L 309.698935 475.533252 
L 320.26077 476.213239 
L 321.073219 476.133765 
L 321.885667 476.325291 
L 327.572809 476.71316 
L 328.385258 476.904771 
L 329.197707 476.818226 
L 340.57199 477.424899 
L 342.196888 477.478964 
L 361.695659 478.071149 
L 364.945455 478.090002 
L 368.19525 478.151565 
L 369.007699 478.028896 
L 369.820147 478.208254 
L 373.069943 478.239203 
L 377.944636 478.323962 
L 378.757084 478.202281 
L 379.569533 478.354411 
L 385.256675 478.45978 
L 389.318919 478.558135 
L 390.131368 478.370793 
L 390.943817 478.555819 
L 393.381163 478.598405 
L 394.193612 478.44593 
L 395.006061 478.628143 
L 399.068305 478.701218 
L 399.880753 478.534989 
L 400.693202 478.724188 
L 401.505651 478.739494 
L 402.3181 478.590766 
L 403.130549 478.770268 
L 419.379525 479.038836 
L 420.191974 478.974775 
L 421.816871 479.03883 
L 424.254218 479.109933 
L 425.066667 478.989109 
L 425.879115 479.133717 
L 439.690745 479.369882 
L 440.503194 479.591593 
L 441.315643 479.413968 
L 443.752989 479.409323 
L 471.376249 479.824865 
L 472.188698 479.661837 
L 473.001147 479.838936 
L 494.124816 480.039657 
L 494.937265 479.844415 
L 495.749713 480.109314 
L 536.372154 480.470549 
L 537.997052 480.487289 
L 550.183784 480.648674 
L 550.996233 480.377541 
L 551.808681 480.626389 
L 553.433579 480.644497 
L 554.246028 480.125562 
L 555.058477 480.663164 
L 559.93317 480.63922 
L 560.745618 480.955704 
L 561.558067 480.731927 
L 581.056839 480.952124 
L 581.869287 480.870376 
L 583.494185 480.952615 
L 586.74398 481.034978 
L 589.181327 481.020617 
L 589.993776 480.440081 
L 590.806224 481.064495 
L 604.617854 481.104525 
L 607.867649 481.171157 
L 608.680098 481.121231 
L 609.492547 481.23247 
L 611.929894 481.210772 
L 618.429484 481.243511 
L 619.241933 481.369626 
L 620.054382 481.251014 
L 620.86683 481.343966 
L 621.679279 481.045374 
L 622.491728 481.250588 
L 625.741523 481.308017 
L 643.615397 481.471993 
L 644.427846 481.40968 
L 645.240295 481.542442 
L 646.052744 481.424644 
L 646.865192 481.49893 
L 647.677641 481.443963 
L 648.49009 481.583281 
L 650.114988 481.53154 
L 653.364783 481.560917 
L 655.802129 481.543611 
L 657.427027 481.5999 
L 658.239476 481.543181 
L 659.864373 481.647595 
L 663.926618 481.664328 
L 664.739066 481.708254 
L 665.551515 481.608978 
L 667.176413 481.694022 
L 678.550696 481.810996 
L 679.363145 481.576415 
L 680.175594 481.801051 
L 689.112531 481.887201 
L 692.362326 481.928054 
L 702.111712 482.012698 
L 702.924161 482.162176 
L 703.736609 482.042824 
L 704.549058 482.035863 
L 705.361507 481.571843 
L 706.173956 482.065412 
L 707.798853 482.073367 
L 708.611302 481.960304 
L 710.2362 482.086085 
L 714.298444 482.092518 
L 716.73579 482.13233 
L 718.360688 482.012462 
L 719.173137 482.151975 
L 726.485176 482.223189 
L 727.297625 482.168671 
L 729.734971 482.257616 
L 736.234562 482.252798 
L 737.047011 482.365629 
L 738.671908 482.315919 
L 739.484357 482.370173 
L 740.296806 482.253045 
L 741.921704 482.343517 
L 746.796396 482.391301 
L 758.17068 482.478747 
L 760.608026 482.471047 
L 761.420475 482.660261 
L 762.232924 482.507627 
L 767.107617 482.514456 
L 767.920066 482.547779 
L 768.732514 482.444869 
L 770.357412 482.571615 
L 771.98231 482.561998 
L 790.668632 482.764135 
L 791.481081 482.111917 
L 792.29353 482.741471 
L 793.105979 482.501192 
L 793.918428 482.77662 
L 797.980672 482.814788 
L 798.79312 482.246545 
L 799.605569 482.802295 
L 802.855364 482.813234 
L 803.667813 482.158251 
L 804.480262 482.755107 
L 806.917609 482.876252 
L 807.730057 482.715812 
L 809.354955 482.80894 
L 810.167404 482.96476 
L 810.979853 482.879334 
L 815.042097 482.924494 
L 819.104341 482.876703 
L 821.541687 482.85865 
L 822.354136 483.023887 
L 823.979034 482.916815 
L 824.791482 483.026314 
L 825.603931 482.928789 
L 828.853726 483.094618 
L 830.478624 483.034628 
L 836.165766 483.177734 
L 836.978215 483.036122 
L 837.790663 483.084199 
L 839.415561 483.036925 
L 840.22801 483.174159 
L 842.665356 483.080114 
L 844.290254 483.178121 
L 846.7276 483.131946 
L 849.164947 483.179841 
L 858.101884 483.220039 
L 858.914333 483.459559 
L 859.726781 483.249143 
L 869.476167 483.268923 
L 870.288616 483.454771 
L 871.101065 483.267596 
L 873.538411 483.360194 
L 874.35086 483.121826 
L 875.163309 483.340668 
L 875.975758 483.260406 
L 876.788206 483.333687 
L 878.413104 483.082582 
L 879.225553 483.319866 
L 880.038002 483.237846 
L 883.287797 483.388306 
L 884.100246 483.139333 
L 884.912695 483.412413 
L 885.725143 483.286042 
L 887.350041 483.542404 
L 888.16249 483.375125 
L 891.412285 483.40976 
L 892.224734 483.011912 
L 893.037183 483.369317 
L 893.849631 483.1077 
L 894.66208 483.441263 
L 896.286978 483.435596 
L 900.349222 483.477497 
L 902.786568 483.423229 
L 903.599017 483.512453 
L 906.036364 483.500392 
L 906.848812 483.54188 
L 907.661261 483.459261 
L 908.47371 483.497351 
L 909.286159 483.415764 
L 910.911057 483.529993 
L 913.348403 483.469584 
L 914.973301 483.43605 
L 915.785749 483.565104 
L 916.598198 483.383908 
L 918.223096 483.554402 
L 921.472891 483.521183 
L 922.28534 483.113622 
L 923.097789 483.617423 
L 926.347584 483.475074 
L 927.160033 483.624447 
L 929.597379 483.614419 
L 930.409828 483.207231 
L 931.222277 483.60241 
L 933.659623 483.746902 
L 936.09697 483.652952 
L 937.721867 483.635045 
L 938.534316 483.338406 
L 939.346765 483.655717 
L 940.971663 483.680024 
L 941.784111 483.667319 
L 942.59656 483.014479 
L 943.409009 483.62718 
L 946.658804 483.588483 
L 947.471253 483.737083 
L 948.283702 483.117019 
L 949.096151 483.684297 
L 952.345946 483.798208 
L 954.783292 483.686536 
L 956.40819 483.781653 
L 959.657985 483.648693 
L 960.470434 483.892762 
L 961.282883 483.807397 
L 962.907781 483.859892 
L 966.157576 483.807338 
L 980.781654 483.885357 
L 981.594103 483.817116 
L 982.406552 483.940411 
L 985.656347 483.88539 
L 986.468796 483.646371 
L 987.281245 483.91973 
L 988.093694 484.037597 
L 988.906143 483.90436 
L 989.718591 483.960447 
L 990.53104 483.862072 
L 992.155938 483.903832 
L 992.968387 483.185184 
L 993.780835 483.987807 
L 994.593284 483.89317 
L 995.405733 483.975855 
L 996.218182 484.232727 
L 996.218182 484.232727 
" style="fill:none;stroke:#1f77b4;stroke-linecap:square;stroke-width:1.5;"/>
   </g>
   <g id="line2d_30">
    <path clip-path="url(#p20c57565fc)" d="M 184.581818 253.68336 
L 194.331204 226.592628 
L 199.205897 212.348144 
L 204.08059 197.361613 
L 213.017527 169.395564 
L 215.454873 162.42876 
L 217.892219 156.13969 
L 220.329566 150.61457 
L 221.954464 147.010714 
L 225.204259 139.590709 
L 228.454054 132.684489 
L 231.703849 126.291773 
L 234.953645 120.386776 
L 236.578542 117.702929 
L 238.20344 115.350182 
L 242.265684 110.176451 
L 244.70303 107.408469 
L 246.327928 105.778414 
L 247.952826 104.38821 
L 249.577723 103.216357 
L 251.202621 102.275904 
L 252.827518 101.533081 
L 254.452416 100.970145 
L 256.077314 100.618198 
L 258.51466 100.362408 
L 262.576904 100.288371 
L 265.826699 100.334198 
L 277.200983 100.922983 
L 290.200164 101.413372 
L 293.449959 101.113403 
L 296.699754 100.617421 
L 299.94955 100.212812 
L 303.199345 99.748862 
L 307.261589 98.775538 
L 313.761179 96.9207 
L 329.197707 92.458444 
L 331.635053 91.952862 
L 334.0724 91.694338 
L 337.322195 91.589668 
L 343.009337 91.496399 
L 346.259132 91.143054 
L 350.321376 90.539573 
L 353.571171 90.340888 
L 364.133006 90.151245 
L 382.819328 90.696533 
L 386.881572 90.666396 
L 391.756265 90.814315 
L 396.630958 90.869493 
L 400.693202 90.961208 
L 403.130549 90.999298 
L 405.567895 91.081693 
L 409.630139 91.072186 
L 412.067486 91.220198 
L 413.692383 91.250925 
L 416.942179 91.177478 
L 420.191974 91.2284 
L 449.440131 90.874495 
L 451.877477 90.74907 
L 455.127273 90.673294 
L 458.377068 90.469575 
L 462.439312 90.421326 
L 471.376249 90.303792 
L 473.813595 90.212388 
L 478.688288 90.192162 
L 486.000328 90.088113 
L 488.437674 90.050022 
L 491.687469 90.099235 
L 494.937265 90.071429 
L 497.374611 90.039086 
L 516.873382 90.049556 
L 519.310729 90.049463 
L 521.748075 90.099701 
L 524.185422 90.016965 
L 526.622768 90.147703 
L 532.30991 89.865349 
L 536.372154 89.979838 
L 537.997052 89.904123 
L 540.434398 89.970983 
L 543.684193 89.927425 
L 546.12154 89.977974 
L 548.558886 89.874173 
L 563.995414 89.745517 
L 566.43276 89.586725 
L 571.307453 89.667721 
L 574.557248 89.546832 
L 578.619492 89.559881 
L 580.24439 89.449835 
L 581.869287 89.500975 
L 584.306634 89.50433 
L 585.931532 89.546273 
L 588.368878 89.395061 
L 598.930713 89.35054 
L 601.368059 89.343394 
L 602.992957 89.479413 
L 607.867649 89.409663 
L 609.492547 89.347619 
L 611.117445 89.30549 
L 613.554791 89.422899 
L 616.804586 89.218497 
L 620.054382 89.517441 
L 621.679279 89.255345 
L 623.304177 88.916819 
L 624.929075 88.943352 
L 628.17887 89.183887 
L 641.178051 89.204268 
L 642.802948 89.127372 
L 644.427846 89.252984 
L 648.49009 89.073468 
L 650.114988 89.170403 
L 652.552334 89.142192 
L 654.989681 89.185036 
L 657.427027 89.091643 
L 661.489271 89.153222 
L 678.550696 89.024193 
L 679.363145 88.898054 
L 680.988043 88.983027 
L 682.61294 89.309373 
L 683.425389 89.362284 
L 685.862735 89.053304 
L 687.487633 89.103605 
L 688.300082 88.99039 
L 689.112531 89.032209 
L 689.92498 89.200508 
L 690.737428 89.222381 
L 691.549877 89.128833 
L 693.174775 89.339852 
L 694.799672 89.467669 
L 698.049468 89.297163 
L 698.861916 89.346563 
L 699.674365 89.514831 
L 706.173956 89.495569 
L 706.986405 89.567586 
L 707.798853 89.501223 
L 708.611302 89.58079 
L 710.2362 89.991737 
L 711.048649 89.956257 
L 712.673546 89.610213 
L 713.485995 89.671418 
L 715.110893 90.060089 
L 715.923342 90.04791 
L 717.548239 89.813527 
L 720.798034 90.149194 
L 721.610483 89.957966 
L 722.422932 89.890764 
L 724.860278 90.236746 
L 726.485176 90.069844 
L 728.110074 90.289128 
L 730.54742 90.210524 
L 732.172318 90.479766 
L 732.984767 90.454227 
L 734.609664 90.283629 
L 736.234562 90.632531 
L 738.671908 90.339801 
L 739.484357 90.589532 
L 740.296806 90.699143 
L 741.921704 90.537212 
L 744.35905 90.729124 
L 745.983948 90.703523 
L 748.421294 90.85225 
L 749.233743 90.733722 
L 750.85864 91.046243 
L 751.671089 90.871264 
L 752.483538 90.832925 
L 753.295987 91.015578 
L 755.733333 91.038445 
L 756.545782 91.23626 
L 758.983129 91.046119 
L 759.795577 91.288269 
L 760.608026 91.333785 
L 761.420475 91.154052 
L 762.232924 91.178441 
L 763.045373 91.390206 
L 763.857821 91.435846 
L 764.67027 91.32462 
L 765.482719 91.369141 
L 766.295168 91.537534 
L 767.920066 91.254031 
L 768.732514 91.384986 
L 769.544963 91.714968 
L 770.357412 91.791894 
L 771.98231 91.572549 
L 772.794758 91.66212 
L 774.419656 91.533122 
L 776.044554 92.017236 
L 776.857002 91.925615 
L 777.669451 91.709593 
L 778.4819 91.73771 
L 779.294349 91.931456 
L 780.919247 91.665911 
L 782.544144 92.099072 
L 783.356593 92.024631 
L 784.169042 91.815911 
L 784.981491 91.944256 
L 785.793939 92.243914 
L 788.231286 92.053773 
L 789.043735 92.209894 
L 789.856183 92.245126 
L 790.668632 92.415414 
L 791.481081 92.288902 
L 792.29353 92.336997 
L 793.105979 92.516295 
L 793.918428 92.407398 
L 797.168223 92.636966 
L 797.980672 92.527044 
L 798.79312 92.670147 
L 799.605569 92.987329 
L 802.042916 92.908383 
L 803.667813 92.394536 
L 804.480262 92.553826 
L 805.292711 93.059719 
L 806.10516 93.274684 
L 807.730057 93.023803 
L 808.542506 93.090197 
L 809.354955 93.316378 
L 810.167404 93.284564 
L 810.979853 93.072519 
L 813.417199 93.381778 
L 814.229648 93.589131 
L 815.854545 93.478682 
L 816.666994 93.580214 
L 818.291892 93.276828 
L 819.104341 93.605908 
L 819.91679 94.18531 
L 820.729238 94.359824 
L 821.541687 94.200006 
L 822.354136 93.849985 
L 823.166585 93.742704 
L 823.979034 93.829976 
L 824.791482 94.076663 
L 826.41638 93.838986 
L 827.228829 93.697561 
L 828.853726 94.356437 
L 831.291073 94.503859 
L 832.103522 94.238562 
L 832.915971 94.142963 
L 833.728419 94.49373 
L 834.540868 94.580723 
L 836.165766 94.371381 
L 837.790663 95.068751 
L 838.603112 95.045512 
L 839.415561 94.692819 
L 840.22801 94.595915 
L 841.040459 94.835767 
L 841.852907 94.870812 
L 842.665356 94.739857 
L 843.477805 94.735725 
L 844.290254 95.020502 
L 845.102703 95.057225 
L 845.915152 94.942674 
L 847.540049 95.214029 
L 848.352498 95.226084 
L 849.164947 95.092674 
L 849.977396 95.124613 
L 850.789844 95.393327 
L 851.602293 95.494953 
L 852.414742 95.431355 
L 854.03964 95.623764 
L 855.664537 95.583033 
L 858.101884 95.848236 
L 859.726781 95.946165 
L 860.53923 96.193131 
L 862.164128 96.054564 
L 864.601474 96.39483 
L 865.413923 96.407133 
L 866.226372 96.572264 
L 867.038821 96.410737 
L 868.663718 96.511027 
L 869.476167 96.461597 
L 870.288616 96.735095 
L 871.101065 96.573506 
L 872.725962 96.779959 
L 873.538411 96.479741 
L 874.35086 96.580839 
L 875.163309 97.011359 
L 875.975758 96.964818 
L 876.788206 96.59106 
L 877.600655 96.634495 
L 879.225553 97.431409 
L 880.038002 97.328385 
L 880.85045 96.827028 
L 881.662899 96.736338 
L 883.287797 97.355446 
L 884.100246 97.242759 
L 884.912695 96.975941 
L 885.725143 97.043267 
L 886.537592 97.382942 
L 887.350041 97.4791 
L 888.16249 97.185655 
L 888.974939 97.200506 
L 889.787387 97.422523 
L 890.599836 97.416496 
L 891.412285 97.19656 
L 893.849631 97.31341 
L 894.66208 97.351656 
L 895.474529 97.633543 
L 897.099427 97.435417 
L 897.911876 97.592159 
L 900.349222 97.590792 
L 901.161671 97.741227 
L 901.97412 97.531544 
L 902.786568 97.617076 
L 903.599017 97.889767 
L 904.411466 97.736443 
L 905.223915 97.706865 
L 906.036364 97.93606 
L 906.848812 97.790782 
L 907.661261 97.767791 
L 908.47371 98.040948 
L 910.098608 97.93345 
L 910.911057 98.063939 
L 911.723505 98.035915 
L 912.535954 97.676356 
L 913.348403 97.743278 
L 914.160852 98.155001 
L 916.598198 98.157269 
L 917.410647 98.272193 
L 918.223096 97.976698 
L 919.035545 98.030913 
L 919.847993 98.206886 
L 920.660442 98.050766 
L 921.472891 98.070059 
L 922.28534 98.246903 
L 923.097789 97.952402 
L 923.910238 97.846954 
L 924.722686 97.961132 
L 925.535135 98.187996 
L 927.160033 97.922576 
L 927.972482 98.118123 
L 928.78493 98.10672 
L 929.597379 97.780063 
L 930.409828 97.718174 
L 931.222277 98.031845 
L 932.034726 98.118993 
L 932.847174 97.970794 
L 933.659623 98.108056 
L 934.472072 98.130146 
L 935.284521 97.822969 
L 936.09697 97.888524 
L 936.909419 98.088545 
L 938.534316 97.712085 
L 940.159214 98.067543 
L 940.971663 97.773508 
L 941.784111 97.899802 
L 942.59656 98.245132 
L 943.409009 98.078106 
L 944.221458 97.734827 
L 945.033907 97.971509 
L 945.846355 98.40495 
L 946.658804 98.212385 
L 947.471253 97.730477 
L 948.283702 97.713731 
L 949.096151 98.062106 
L 950.721048 97.836018 
L 952.345946 98.328241 
L 953.158395 98.284123 
L 953.970844 98.076894 
L 954.783292 98.096406 
L 955.595741 97.891787 
L 958.033088 98.199243 
L 958.845536 98.171623 
L 959.657985 98.260045 
L 961.282883 97.846115 
L 962.095332 98.182218 
L 965.345127 98.171903 
L 966.157576 97.841517 
L 967.782473 98.195391 
L 968.594922 98.019604 
L 970.21982 98.266569 
L 971.032269 98.107435 
L 972.657166 98.454474 
L 974.282064 98.105043 
L 975.094513 98.470288 
L 975.906962 98.534848 
L 976.71941 98.230499 
L 977.531859 98.359962 
L 978.344308 98.685812 
L 979.969206 98.121354 
L 980.781654 98.378914 
L 982.406552 98.230716 
L 983.219001 98.458512 
L 984.03145 98.556224 
L 984.843898 98.235749 
L 985.656347 98.367419 
L 986.468796 98.798964 
L 987.281245 98.633865 
L 988.093694 98.262033 
L 988.906143 98.392647 
L 989.718591 98.825497 
L 990.53104 98.660491 
L 991.343489 98.176035 
L 992.155938 98.32355 
L 992.968387 98.81686 
L 993.780835 99.028873 
L 995.405733 98.285956 
L 996.218182 98.553645 
L 996.218182 98.553645 
" style="fill:none;stroke:#ff7f0e;stroke-linecap:square;stroke-width:1.5;"/>
   </g>
   <g id="patch_3">
    <path d="M 144 504 
L 144 69.12 
" style="fill:none;stroke:#000000;stroke-linecap:square;stroke-linejoin:miter;stroke-width:0.8;"/>
   </g>
   <g id="patch_4">
    <path d="M 1036.8 504 
L 1036.8 69.12 
" style="fill:none;stroke:#000000;stroke-linecap:square;stroke-linejoin:miter;stroke-width:0.8;"/>
   </g>
   <g id="patch_5">
    <path d="M 144 504 
L 1036.8 504 
" style="fill:none;stroke:#000000;stroke-linecap:square;stroke-linejoin:miter;stroke-width:0.8;"/>
   </g>
   <g id="patch_6">
    <path d="M 144 69.12 
L 1036.8 69.12 
" style="fill:none;stroke:#000000;stroke-linecap:square;stroke-linejoin:miter;stroke-width:0.8;"/>
   </g>
   <g id="text_15">
    <!-- LOSS vs VAL_LOSS -->
    <defs>
     <path d="M 9.8125 72.90625 
L 19.671875 72.90625 
L 19.671875 8.296875 
L 55.171875 8.296875 
L 55.171875 0 
L 9.8125 0 
z
" id="DejaVuSans-76"/>
     <path d="M 39.40625 66.21875 
Q 28.65625 66.21875 22.328125 58.203125 
Q 16.015625 50.203125 16.015625 36.375 
Q 16.015625 22.609375 22.328125 14.59375 
Q 28.65625 6.59375 39.40625 6.59375 
Q 50.140625 6.59375 56.421875 14.59375 
Q 62.703125 22.609375 62.703125 36.375 
Q 62.703125 50.203125 56.421875 58.203125 
Q 50.140625 66.21875 39.40625 66.21875 
z
M 39.40625 74.21875 
Q 54.734375 74.21875 63.90625 63.9375 
Q 73.09375 53.65625 73.09375 36.375 
Q 73.09375 19.140625 63.90625 8.859375 
Q 54.734375 -1.421875 39.40625 -1.421875 
Q 24.03125 -1.421875 14.8125 8.828125 
Q 5.609375 19.09375 5.609375 36.375 
Q 5.609375 53.65625 14.8125 63.9375 
Q 24.03125 74.21875 39.40625 74.21875 
z
" id="DejaVuSans-79"/>
     <path d="M 53.515625 70.515625 
L 53.515625 60.890625 
Q 47.90625 63.578125 42.921875 64.890625 
Q 37.9375 66.21875 33.296875 66.21875 
Q 25.25 66.21875 20.875 63.09375 
Q 16.5 59.96875 16.5 54.203125 
Q 16.5 49.359375 19.40625 46.890625 
Q 22.3125 44.4375 30.421875 42.921875 
L 36.375 41.703125 
Q 47.40625 39.59375 52.65625 34.296875 
Q 57.90625 29 57.90625 20.125 
Q 57.90625 9.515625 50.796875 4.046875 
Q 43.703125 -1.421875 29.984375 -1.421875 
Q 24.8125 -1.421875 18.96875 -0.25 
Q 13.140625 0.921875 6.890625 3.21875 
L 6.890625 13.375 
Q 12.890625 10.015625 18.65625 8.296875 
Q 24.421875 6.59375 29.984375 6.59375 
Q 38.421875 6.59375 43.015625 9.90625 
Q 47.609375 13.234375 47.609375 19.390625 
Q 47.609375 24.75 44.3125 27.78125 
Q 41.015625 30.8125 33.5 32.328125 
L 27.484375 33.5 
Q 16.453125 35.6875 11.515625 40.375 
Q 6.59375 45.0625 6.59375 53.421875 
Q 6.59375 63.09375 13.40625 68.65625 
Q 20.21875 74.21875 32.171875 74.21875 
Q 37.3125 74.21875 42.625 73.28125 
Q 47.953125 72.359375 53.515625 70.515625 
z
" id="DejaVuSans-83"/>
     <path id="DejaVuSans-32"/>
     <path d="M 2.984375 54.6875 
L 12.5 54.6875 
L 29.59375 8.796875 
L 46.6875 54.6875 
L 56.203125 54.6875 
L 35.6875 0 
L 23.484375 0 
z
" id="DejaVuSans-118"/>
     <path d="M 44.28125 53.078125 
L 44.28125 44.578125 
Q 40.484375 46.53125 36.375 47.5 
Q 32.28125 48.484375 27.875 48.484375 
Q 21.1875 48.484375 17.84375 46.4375 
Q 14.5 44.390625 14.5 40.28125 
Q 14.5 37.15625 16.890625 35.375 
Q 19.28125 33.59375 26.515625 31.984375 
L 29.59375 31.296875 
Q 39.15625 29.25 43.1875 25.515625 
Q 47.21875 21.78125 47.21875 15.09375 
Q 47.21875 7.46875 41.1875 3.015625 
Q 35.15625 -1.421875 24.609375 -1.421875 
Q 20.21875 -1.421875 15.453125 -0.5625 
Q 10.6875 0.296875 5.421875 2 
L 5.421875 11.28125 
Q 10.40625 8.6875 15.234375 7.390625 
Q 20.0625 6.109375 24.8125 6.109375 
Q 31.15625 6.109375 34.5625 8.28125 
Q 37.984375 10.453125 37.984375 14.40625 
Q 37.984375 18.0625 35.515625 20.015625 
Q 33.0625 21.96875 24.703125 23.78125 
L 21.578125 24.515625 
Q 13.234375 26.265625 9.515625 29.90625 
Q 5.8125 33.546875 5.8125 39.890625 
Q 5.8125 47.609375 11.28125 51.796875 
Q 16.75 56 26.8125 56 
Q 31.78125 56 36.171875 55.265625 
Q 40.578125 54.546875 44.28125 53.078125 
z
" id="DejaVuSans-115"/>
     <path d="M 28.609375 0 
L 0.78125 72.90625 
L 11.078125 72.90625 
L 34.1875 11.53125 
L 57.328125 72.90625 
L 67.578125 72.90625 
L 39.796875 0 
z
" id="DejaVuSans-86"/>
     <path d="M 34.1875 63.1875 
L 20.796875 26.90625 
L 47.609375 26.90625 
z
M 28.609375 72.90625 
L 39.796875 72.90625 
L 67.578125 0 
L 57.328125 0 
L 50.6875 18.703125 
L 17.828125 18.703125 
L 11.1875 0 
L 0.78125 0 
z
" id="DejaVuSans-65"/>
     <path d="M 50.984375 -16.609375 
L 50.984375 -23.578125 
L -0.984375 -23.578125 
L -0.984375 -16.609375 
z
" id="DejaVuSans-95"/>
    </defs>
    <g transform="translate(534 63.12)scale(0.12 -0.12)">
     <use xlink:href="#DejaVuSans-76"/>
     <use x="55.666016" xlink:href="#DejaVuSans-79"/>
     <use x="134.376953" xlink:href="#DejaVuSans-83"/>
     <use x="197.853516" xlink:href="#DejaVuSans-83"/>
     <use x="261.330078" xlink:href="#DejaVuSans-32"/>
     <use x="293.117188" xlink:href="#DejaVuSans-118"/>
     <use x="352.296875" xlink:href="#DejaVuSans-115"/>
     <use x="404.396484" xlink:href="#DejaVuSans-32"/>
     <use x="436.183594" xlink:href="#DejaVuSans-86"/>
     <use x="504.498047" xlink:href="#DejaVuSans-65"/>
     <use x="572.90625" xlink:href="#DejaVuSans-76"/>
     <use x="628.619141" xlink:href="#DejaVuSans-95"/>
     <use x="678.619141" xlink:href="#DejaVuSans-76"/>
     <use x="734.285156" xlink:href="#DejaVuSans-79"/>
     <use x="812.996094" xlink:href="#DejaVuSans-83"/>
     <use x="876.472656" xlink:href="#DejaVuSans-83"/>
    </g>
   </g>
   <g id="legend_1">
    <g id="patch_7">
     <path d="M 151 499 
L 257.921875 499 
Q 259.921875 499 259.921875 497 
L 259.921875 468.365625 
Q 259.921875 466.365625 257.921875 466.365625 
L 151 466.365625 
Q 149 466.365625 149 468.365625 
L 149 497 
Q 149 499 151 499 
z
" style="fill:#ffffff;opacity:0.8;stroke:#cccccc;stroke-linejoin:miter;"/>
    </g>
    <g id="line2d_31">
     <path d="M 153 474.464063 
L 173 474.464063 
" style="fill:none;stroke:#1f77b4;stroke-linecap:square;stroke-width:1.5;"/>
    </g>
    <g id="line2d_32"/>
    <g id="text_16">
     <!-- Train LOSS -->
     <defs>
      <path d="M -0.296875 72.90625 
L 61.375 72.90625 
L 61.375 64.59375 
L 35.5 64.59375 
L 35.5 0 
L 25.59375 0 
L 25.59375 64.59375 
L -0.296875 64.59375 
z
" id="DejaVuSans-84"/>
      <path d="M 41.109375 46.296875 
Q 39.59375 47.171875 37.8125 47.578125 
Q 36.03125 48 33.890625 48 
Q 26.265625 48 22.1875 43.046875 
Q 18.109375 38.09375 18.109375 28.8125 
L 18.109375 0 
L 9.078125 0 
L 9.078125 54.6875 
L 18.109375 54.6875 
L 18.109375 46.1875 
Q 20.953125 51.171875 25.484375 53.578125 
Q 30.03125 56 36.53125 56 
Q 37.453125 56 38.578125 55.875 
Q 39.703125 55.765625 41.0625 55.515625 
z
" id="DejaVuSans-114"/>
      <path d="M 34.28125 27.484375 
Q 23.390625 27.484375 19.1875 25 
Q 14.984375 22.515625 14.984375 16.5 
Q 14.984375 11.71875 18.140625 8.90625 
Q 21.296875 6.109375 26.703125 6.109375 
Q 34.1875 6.109375 38.703125 11.40625 
Q 43.21875 16.703125 43.21875 25.484375 
L 43.21875 27.484375 
z
M 52.203125 31.203125 
L 52.203125 0 
L 43.21875 0 
L 43.21875 8.296875 
Q 40.140625 3.328125 35.546875 0.953125 
Q 30.953125 -1.421875 24.3125 -1.421875 
Q 15.921875 -1.421875 10.953125 3.296875 
Q 6 8.015625 6 15.921875 
Q 6 25.140625 12.171875 29.828125 
Q 18.359375 34.515625 30.609375 34.515625 
L 43.21875 34.515625 
L 43.21875 35.40625 
Q 43.21875 41.609375 39.140625 45 
Q 35.0625 48.390625 27.6875 48.390625 
Q 23 48.390625 18.546875 47.265625 
Q 14.109375 46.140625 10.015625 43.890625 
L 10.015625 52.203125 
Q 14.9375 54.109375 19.578125 55.046875 
Q 24.21875 56 28.609375 56 
Q 40.484375 56 46.34375 49.84375 
Q 52.203125 43.703125 52.203125 31.203125 
z
" id="DejaVuSans-97"/>
      <path d="M 9.421875 54.6875 
L 18.40625 54.6875 
L 18.40625 0 
L 9.421875 0 
z
M 9.421875 75.984375 
L 18.40625 75.984375 
L 18.40625 64.59375 
L 9.421875 64.59375 
z
" id="DejaVuSans-105"/>
      <path d="M 54.890625 33.015625 
L 54.890625 0 
L 45.90625 0 
L 45.90625 32.71875 
Q 45.90625 40.484375 42.875 44.328125 
Q 39.84375 48.1875 33.796875 48.1875 
Q 26.515625 48.1875 22.3125 43.546875 
Q 18.109375 38.921875 18.109375 30.90625 
L 18.109375 0 
L 9.078125 0 
L 9.078125 54.6875 
L 18.109375 54.6875 
L 18.109375 46.1875 
Q 21.34375 51.125 25.703125 53.5625 
Q 30.078125 56 35.796875 56 
Q 45.21875 56 50.046875 50.171875 
Q 54.890625 44.34375 54.890625 33.015625 
z
" id="DejaVuSans-110"/>
     </defs>
     <g transform="translate(181 477.964063)scale(0.1 -0.1)">
      <use xlink:href="#DejaVuSans-84"/>
      <use x="60.865234" xlink:href="#DejaVuSans-114"/>
      <use x="101.978516" xlink:href="#DejaVuSans-97"/>
      <use x="163.257812" xlink:href="#DejaVuSans-105"/>
      <use x="191.041016" xlink:href="#DejaVuSans-110"/>
      <use x="254.419922" xlink:href="#DejaVuSans-32"/>
      <use x="286.207031" xlink:href="#DejaVuSans-76"/>
      <use x="341.873047" xlink:href="#DejaVuSans-79"/>
      <use x="420.583984" xlink:href="#DejaVuSans-83"/>
      <use x="484.060547" xlink:href="#DejaVuSans-83"/>
     </g>
    </g>
    <g id="line2d_33">
     <path d="M 153 489.142187 
L 173 489.142187 
" style="fill:none;stroke:#ff7f0e;stroke-linecap:square;stroke-width:1.5;"/>
    </g>
    <g id="line2d_34"/>
    <g id="text_17">
     <!-- Test VAL_LOSS -->
     <defs>
      <path d="M 56.203125 29.59375 
L 56.203125 25.203125 
L 14.890625 25.203125 
Q 15.484375 15.921875 20.484375 11.0625 
Q 25.484375 6.203125 34.421875 6.203125 
Q 39.59375 6.203125 44.453125 7.46875 
Q 49.3125 8.734375 54.109375 11.28125 
L 54.109375 2.78125 
Q 49.265625 0.734375 44.1875 -0.34375 
Q 39.109375 -1.421875 33.890625 -1.421875 
Q 20.796875 -1.421875 13.15625 6.1875 
Q 5.515625 13.8125 5.515625 26.8125 
Q 5.515625 40.234375 12.765625 48.109375 
Q 20.015625 56 32.328125 56 
Q 43.359375 56 49.78125 48.890625 
Q 56.203125 41.796875 56.203125 29.59375 
z
M 47.21875 32.234375 
Q 47.125 39.59375 43.09375 43.984375 
Q 39.0625 48.390625 32.421875 48.390625 
Q 24.90625 48.390625 20.390625 44.140625 
Q 15.875 39.890625 15.1875 32.171875 
z
" id="DejaVuSans-101"/>
      <path d="M 18.3125 70.21875 
L 18.3125 54.6875 
L 36.8125 54.6875 
L 36.8125 47.703125 
L 18.3125 47.703125 
L 18.3125 18.015625 
Q 18.3125 11.328125 20.140625 9.421875 
Q 21.96875 7.515625 27.59375 7.515625 
L 36.8125 7.515625 
L 36.8125 0 
L 27.59375 0 
Q 17.1875 0 13.234375 3.875 
Q 9.28125 7.765625 9.28125 18.015625 
L 9.28125 47.703125 
L 2.6875 47.703125 
L 2.6875 54.6875 
L 9.28125 54.6875 
L 9.28125 70.21875 
z
" id="DejaVuSans-116"/>
     </defs>
     <g transform="translate(181 492.642187)scale(0.1 -0.1)">
      <use xlink:href="#DejaVuSans-84"/>
      <use x="60.818359" xlink:href="#DejaVuSans-101"/>
      <use x="122.341797" xlink:href="#DejaVuSans-115"/>
      <use x="174.441406" xlink:href="#DejaVuSans-116"/>
      <use x="213.650391" xlink:href="#DejaVuSans-32"/>
      <use x="245.4375" xlink:href="#DejaVuSans-86"/>
      <use x="313.751953" xlink:href="#DejaVuSans-65"/>
      <use x="382.160156" xlink:href="#DejaVuSans-76"/>
      <use x="437.873047" xlink:href="#DejaVuSans-95"/>
      <use x="487.873047" xlink:href="#DejaVuSans-76"/>
      <use x="543.539062" xlink:href="#DejaVuSans-79"/>
      <use x="622.25" xlink:href="#DejaVuSans-83"/>
      <use x="685.726562" xlink:href="#DejaVuSans-83"/>
     </g>
    </g>
   </g>
  </g>
 </g>
 <defs>
  <clipPath id="p20c57565fc">
   <rect height="434.88" width="892.8" x="144" y="69.12"/>
  </clipPath>
 </defs>
</svg>
